<svg xmlns="http://www.w3.org/2000/svg" height="23" viewBox="0 0 69 23" width="69"><g fill="#fff"><path d="m22.547 1.2578h5.09c3.896 0 6.286 1.5471 6.286 5.7629 0 1.5181-.53 3.2553-1.835 4.1062 2.473.4448 3.587 2.9782 3.587 5.3085 0 4.1513-2.891 6.0078-6.701 6.0078h-6.427zm4.091 8.8216h.501c1.997 0 2.974-.5898 2.974-2.7847 0-2.195-1.222-2.7171-2.952-2.7171h-.523zm0 9.0472h.861c2.199 0 4.082-.2868 4.082-3.0329s-2.221-2.8718-4.279-2.8718h-.667v5.9047z"/><path d="m44.746 22.44h-4.085v-17.5884h-4.231v-3.5938h12.547v3.5938h-4.231z"/><path d="m68.998 11.1755v.5351c0 5.9853-3.038 11.2905-9.544 11.2905-6.118 0-9.985-5.2247-9.985-11.0681 0-5.8435 3.979-11.2357 10.237-11.2357 3.558 0 6.672 1.8275 8.287 5.0602l-3.616 1.9629c-.836-1.9145-2.61-3.3746-4.783-3.3746-3.954 0-5.894 4.074-5.894 7.5872 0 3.5131 1.972 7.4195 5.923 7.4195 2.556 0 4.694-2.2465 4.78-4.8056h-4.445v-3.3746h9.043z"/><path d="m0 0h7.426l-.173 9.7305h.173c.162-.9315.635-1.734 1.049-2.5366l3.68-7.1939h8.312l-6.564 10.9134 7.257 11.5064h-8.846l-3.612-6.7813c-.44-.8606-1.114-1.6954-1.276-2.6172h-.173l.173 9.3985h-7.426z"/></g></svg>